<?xml version="1.0" standalone="no"?>
<!DOCTYPE svg PUBLIC "-//W3C//DTD SVG 20010904//EN"
 "http://www.w3.org/TR/2001/REC-SVG-20010904/DTD/svg10.dtd">
<svg version="1.0" xmlns="http://www.w3.org/2000/svg"
 width="1394.000000pt" height="1394.000000pt" viewBox="0 0 1394.000000 1394.000000"
 preserveAspectRatio="xMidYMid meet">
<metadata>
Created by potrace 1.11, written by Peter Selinger 2001-2013
</metadata>
<g transform="translate(0.000000,1394.000000) scale(0.100000,-0.100000)"
fill="#000000" stroke="none">
<path d="M5920 13893 c-322 -51 -776 -154 -969 -220 -24 -8 -51 -16 -60 -18
-68 -15 -501 -173 -608 -221 -28 -13 -54 -24 -56 -24 -3 0 -39 -16 -80 -35
l-76 -35 23 -53 c13 -28 40 -88 61 -132 20 -44 56 -123 80 -176 24 -52 57
-124 73 -160 17 -35 66 -143 110 -239 44 -96 93 -204 110 -240 16 -36 55 -119
85 -185 173 -380 214 -468 248 -542 l37 -82 104 45 c314 137 797 283 1051 320
18 2 39 6 47 7 48 11 127 25 147 26 6 1 10 11 8 24 -2 12 -6 40 -9 62 -3 22
-8 56 -10 75 -25 172 -38 260 -42 290 -2 19 -6 44 -9 55 -2 11 -7 47 -10 80
-4 33 -8 67 -10 75 -2 8 -7 38 -10 65 -3 28 -8 59 -10 70 -2 11 -7 43 -10 70
-3 28 -10 75 -15 105 -5 30 -12 75 -15 100 -6 55 -16 128 -21 155 -2 11 -7 40
-10 65 -3 25 -7 52 -9 60 -2 8 -7 40 -10 70 -3 30 -10 80 -15 110 -5 30 -12
73 -14 95 -3 22 -11 74 -16 115 -6 41 -14 95 -17 120 -3 25 -7 52 -9 60 -1 8
-3 23 -3 32 -1 17 -12 19 -61 11z"/>
<path d="M7949 13878 c0 -13 -2 -30 -3 -38 -2 -8 -7 -42 -11 -75 -4 -33 -9
-69 -10 -80 -2 -11 -6 -38 -9 -60 -4 -22 -9 -56 -12 -75 -2 -19 -6 -46 -9 -60
-2 -14 -7 -49 -10 -79 -4 -30 -8 -61 -10 -70 -4 -20 -22 -150 -30 -211 -3 -25
-10 -72 -15 -105 -5 -33 -12 -80 -15 -105 -3 -25 -8 -56 -10 -70 -2 -14 -7
-45 -10 -70 -3 -25 -8 -56 -10 -70 -2 -14 -9 -61 -15 -106 -6 -44 -12 -89 -14
-100 -3 -19 -13 -85 -22 -154 -3 -19 -7 -46 -9 -60 -3 -14 -7 -45 -10 -70 -3
-25 -14 -100 -24 -167 -16 -111 -16 -123 -2 -124 9 0 27 -3 41 -5 14 -2 50 -9
80 -14 118 -20 273 -53 385 -81 44 -12 87 -22 95 -24 99 -22 440 -141 624
-219 60 -25 113 -46 118 -46 5 0 12 10 17 23 9 22 52 115 122 265 21 46 39 85
39 87 0 5 48 109 111 243 27 57 49 105 49 107 0 2 18 41 39 87 21 46 65 139
96 208 31 69 68 148 80 175 13 28 57 124 98 215 41 91 86 190 100 220 52 114
77 173 74 176 -5 5 -223 98 -297 127 -36 14 -105 41 -155 60 -81 32 -292 102
-466 156 -109 34 -364 97 -524 131 -82 17 -157 33 -166 35 -9 2 -34 6 -55 9
-22 4 -64 11 -94 16 -30 5 -76 12 -102 16 -45 5 -48 4 -49 -18z"/>
<path d="M2320 12194 c-363 -327 -701 -702 -991 -1099 -81 -111 -219 -315
-219 -324 0 -3 62 -46 138 -94 75 -49 209 -135 297 -192 88 -57 214 -138 280
-180 66 -42 253 -162 415 -266 162 -105 350 -226 417 -269 l122 -79 62 92
c121 180 290 396 439 561 60 67 313 318 374 371 l57 50 -39 45 c-22 25 -106
122 -187 215 -81 94 -161 186 -179 206 -17 19 -101 116 -186 215 -85 98 -157
181 -160 184 -3 3 -48 54 -100 115 -52 60 -105 121 -117 135 -12 14 -30 34
-40 46 -10 12 -70 81 -134 155 -64 74 -127 146 -140 162 l-24 27 -85 -76z"/>
<path d="M11487 12228 c-19 -24 -49 -59 -67 -78 -17 -19 -50 -57 -73 -85 -68
-79 -127 -148 -156 -180 -15 -16 -144 -165 -286 -330 -143 -165 -264 -305
-270 -311 -5 -6 -29 -33 -51 -60 -23 -27 -112 -130 -198 -229 -86 -99 -156
-182 -156 -186 0 -3 27 -30 60 -59 137 -118 363 -354 511 -530 71 -85 232
-299 303 -405 26 -38 49 -72 51 -74 3 -2 48 25 102 60 54 34 141 90 193 124
52 34 124 80 160 103 36 23 72 46 80 52 8 5 121 78 250 161 129 83 251 161
270 174 90 58 302 195 364 236 38 24 111 71 162 104 l93 60 -39 60 c-41 64
-211 307 -220 315 -3 3 -18 23 -34 45 -45 61 -263 332 -286 355 -3 3 -39 43
-79 90 -145 165 -620 630 -644 630 -2 0 -20 -19 -40 -42z"/>
<path d="M5067 8933 c1 -400 2 -733 2 -739 1 -8 166 -11 574 -10 l572 1 0 218
c0 186 2 217 15 218 8 0 220 1 470 1 400 0 593 -4 656 -16 17 -3 64 -11 134
-22 14 -3 77 -21 140 -40 200 -62 419 -184 549 -306 20 -19 45 -39 56 -45 21
-11 1395 -15 1395 -4 0 3 -24 51 -53 106 -206 390 -534 731 -927 963 -228 134
-480 238 -745 307 -70 18 -257 56 -295 60 -74 7 -159 19 -175 23 -11 3 -549 7
-1195 9 l-1175 4 2 -728z"/>
<path d="M251 8856 c-32 -117 -96 -381 -104 -431 -3 -16 -12 -64 -21 -105 -17
-84 -32 -173 -41 -240 -3 -25 -8 -52 -10 -60 -2 -8 -7 -40 -10 -70 -3 -30 -8
-66 -10 -80 -3 -14 -7 -56 -11 -95 -3 -38 -7 -72 -9 -75 -1 -3 -6 -57 -10
-120 -3 -63 -8 -127 -11 -141 -2 -15 -6 -122 -9 -238 l-4 -211 994 0 995 0 1
53 c1 130 17 410 25 450 2 12 7 56 10 97 3 41 7 77 9 80 2 4 7 29 10 56 7 54
9 67 20 134 9 57 10 59 30 155 14 70 77 332 91 377 4 15 -35 32 -126 54 -17 4
-697 204 -779 229 -30 9 -62 18 -70 20 -9 2 -63 18 -121 35 -58 18 -118 35
-135 40 -16 4 -100 29 -185 54 -85 25 -230 67 -322 94 l-167 49 -30 -111z"/>
<path d="M13330 8879 c-162 -48 -304 -91 -315 -93 -11 -3 -74 -21 -140 -41
-66 -20 -127 -38 -135 -40 -18 -4 -702 -206 -820 -242 -47 -14 -104 -30 -127
-36 -45 -11 -49 -19 -33 -62 5 -14 12 -40 15 -57 3 -17 15 -63 26 -102 19 -72
73 -334 84 -416 3 -25 10 -72 15 -105 5 -33 12 -87 15 -120 4 -33 8 -71 10
-84 7 -38 19 -277 19 -378 1 -75 4 -93 16 -93 21 -1 1437 -1 1732 -1 l246 1
-4 163 c-3 165 -11 320 -19 392 -2 22 -7 72 -10 110 -10 118 -26 247 -46 375
-6 36 -12 79 -14 96 -3 16 -14 77 -25 135 -12 57 -23 115 -26 129 -2 14 -7 36
-10 50 -3 14 -8 36 -10 50 -3 14 -10 43 -16 65 -5 22 -12 51 -15 65 -2 14 -18
77 -35 140 -17 63 -35 132 -41 153 -6 24 -15 37 -26 36 -9 0 -149 -41 -311
-90z"/>
<path d="M5069 7745 c0 0 0 -1367 0 -1383 1 -18 717 -16 816 3 102 19 111 21
170 51 71 34 135 96 165 159 34 70 38 225 9 302 -26 66 -93 134 -172 174 l-60
31 30 17 c47 29 107 104 127 162 27 73 25 176 -4 251 -39 105 -153 192 -284
220 -35 7 -780 20 -797 13z m711 -288 c19 -8 46 -27 60 -42 21 -22 25 -36 25
-87 0 -57 -2 -62 -38 -93 -21 -18 -52 -36 -70 -40 -18 -4 -112 -9 -209 -10
l-178 -3 0 142 c0 79 2 145 5 147 2 3 87 4 187 3 139 -1 191 -5 218 -17z m55
-546 c47 -13 65 -26 89 -62 53 -83 10 -188 -89 -215 -16 -4 -128 -8 -247 -9
l-218 -2 0 148 c0 101 4 149 11 151 28 9 417 0 454 -11z"/>
<path d="M6903 7048 l0 -698 531 0 531 0 -2 127 c-1 71 -2 133 -2 138 -1 7
-130 10 -376 10 -328 0 -375 2 -376 15 -1 21 -1 208 0 245 l1 30 325 0 325 -1
1 31 c1 36 1 227 0 238 -1 4 -147 7 -326 7 -318 0 -325 0 -326 20 0 11 0 63 0
115 0 52 0 106 0 120 l1 25 370 0 370 0 1 33 c1 31 1 135 0 207 l-1 35 -523 0
-524 0 0 -697z"/>
<path d="M8535 7740 c-1 -3 -3 -67 -3 -142 l0 -138 212 0 213 0 -1 -542 c-1
-299 0 -549 2 -555 3 -10 43 -13 156 -13 l151 0 0 553 0 552 213 3 212 2 0
143 0 142 -576 0 c-317 0 -577 -2 -579 -5z"/>
<path d="M5069 5876 c0 -12 -1 -338 -1 -726 l-1 -705 1124 0 c998 0 1252 4
1324 19 11 2 45 7 75 10 30 4 78 11 105 17 28 5 59 11 70 13 11 2 38 9 60 14
22 6 51 13 65 16 215 42 624 221 855 375 167 111 271 196 410 336 172 173 330
387 428 581 l36 71 -697 0 -697 0 -55 -49 c-120 -107 -280 -202 -440 -261
-154 -57 -237 -75 -470 -103 -72 -8 -1028 -9 -1037 -1 -3 4 -7 98 -7 209 l-1
203 -572 1 -573 1 -1 -21z"/>
<path d="M11716 5502 c-119 -370 -276 -720 -465 -1037 l-89 -150 101 -65 c216
-139 679 -437 732 -470 170 -108 328 -209 564 -361 145 -93 267 -171 272 -172
19 -5 267 427 397 691 48 97 87 179 87 182 1 3 8 21 17 40 34 75 100 230 103
240 0 3 20 55 44 115 24 61 70 191 102 290 32 99 63 193 69 209 5 16 8 32 5
34 -2 3 -73 25 -157 49 -84 25 -243 71 -353 103 -110 32 -256 74 -325 94 -69
20 -138 40 -155 45 -81 25 -229 69 -530 156 -181 53 -342 100 -357 105 l-28 9
-34 -107z"/>
<path d="M2055 5551 c-71 -21 -269 -80 -440 -131 -170 -50 -319 -94 -330 -96
-11 -2 -31 -8 -45 -13 -14 -5 -119 -37 -235 -71 -116 -34 -219 -64 -230 -68
-11 -3 -22 -7 -25 -7 -26 -6 -350 -102 -428 -127 -39 -12 -39 -6 9 -158 120
-379 322 -854 500 -1177 16 -29 43 -79 61 -110 39 -72 174 -297 202 -340 l22
-31 109 71 c100 65 422 273 855 552 91 59 244 158 340 220 96 63 216 140 267
172 51 32 92 62 93 66 0 5 -39 72 -86 150 -102 169 -274 515 -339 682 -26 66
-50 127 -54 135 -4 8 -30 84 -57 167 -27 84 -51 153 -54 152 -3 0 -63 -17
-135 -38z"/>
<path d="M10200 3217 c-14 -13 -70 -59 -125 -103 -289 -229 -562 -404 -888
-567 l-144 -72 64 -140 c35 -77 77 -168 94 -203 16 -34 29 -64 29 -66 0 -2 22
-50 49 -107 27 -57 60 -129 74 -159 13 -30 65 -143 114 -250 50 -107 103 -222
118 -255 72 -159 191 -419 226 -493 22 -46 39 -86 39 -90 0 -4 7 -15 15 -25
13 -18 22 -15 177 62 90 44 199 100 243 124 72 38 115 63 258 146 186 107 642
425 787 548 14 11 67 55 118 98 l92 77 -21 26 c-11 15 -44 54 -73 87 -29 33
-104 119 -166 190 -62 72 -136 157 -165 190 -29 33 -134 155 -235 270 -100
116 -206 237 -235 270 -29 33 -103 119 -165 190 -62 72 -138 159 -169 194 -31
35 -57 68 -59 72 -6 15 -26 10 -52 -14z"/>
<path d="M3643 3152 c-37 -43 -93 -107 -123 -142 -30 -36 -73 -85 -95 -110
-22 -25 -63 -73 -91 -106 -28 -32 -246 -284 -483 -558 -237 -275 -431 -503
-431 -507 0 -17 414 -340 590 -460 52 -35 99 -67 105 -72 141 -107 764 -454
933 -520 l42 -17 10 25 c9 25 117 263 298 655 16 36 39 88 52 115 31 69 62
137 100 220 18 39 63 138 100 220 73 162 92 202 182 400 33 72 64 140 69 152
8 21 -1 27 -127 88 -74 37 -194 100 -267 142 -147 83 -448 279 -460 300 -4 7
-12 13 -18 13 -5 0 -35 21 -67 46 -31 25 -64 51 -72 57 -8 7 -50 40 -92 75
-42 34 -79 62 -81 62 -3 0 -36 -35 -74 -78z"/>
<path d="M7669 2076 c-2 -3 -27 -7 -54 -10 -28 -2 -72 -7 -100 -11 -238 -28
-532 -36 -820 -21 -132 6 -176 10 -268 21 -114 14 -155 16 -160 8 -2 -4 -8
-33 -11 -63 -4 -30 -9 -68 -11 -85 -12 -71 -15 -93 -20 -140 -4 -27 -8 -57
-10 -65 -2 -8 -7 -42 -10 -75 -4 -33 -8 -67 -11 -75 -2 -8 -6 -35 -9 -60 -3
-25 -10 -72 -15 -105 -5 -33 -12 -84 -15 -114 -4 -30 -8 -61 -10 -70 -4 -24
-14 -91 -20 -141 -4 -25 -8 -56 -10 -70 -2 -14 -9 -62 -15 -107 -6 -46 -13
-95 -15 -110 -2 -16 -6 -41 -8 -58 -3 -16 -9 -55 -12 -85 -4 -30 -9 -62 -10
-70 -2 -8 -6 -37 -9 -65 -7 -49 -14 -96 -21 -145 -15 -96 -35 -253 -33 -256 2
-1 28 -5 58 -9 30 -3 71 -8 90 -10 70 -9 116 -14 185 -20 39 -3 88 -8 111 -10
221 -23 891 -23 1069 0 17 2 64 7 105 10 81 6 134 12 190 20 19 3 58 7 85 11
87 10 87 10 81 62 -4 26 -8 58 -11 72 -2 14 -6 41 -9 60 -3 19 -8 53 -11 75
-3 22 -8 56 -11 75 -2 19 -7 46 -9 60 -2 14 -11 78 -20 142 -9 65 -18 125 -19
135 -2 10 -7 43 -11 73 -4 30 -9 62 -10 70 -3 17 -14 98 -21 150 -2 19 -6 46
-9 60 -2 14 -7 45 -10 70 -4 25 -8 56 -10 70 -3 14 -14 90 -25 170 -11 80 -22
156 -25 170 -2 14 -9 63 -16 110 -6 47 -13 94 -14 105 -2 11 -6 43 -10 70 -4
28 -8 57 -10 65 -1 8 -6 39 -10 68 -6 47 -13 60 -26 48z"/>
</g>
</svg>
